<?xml version="1.0" standalone="no"?>
<!DOCTYPE svg PUBLIC "-//W3C//DTD SVG 20010904//EN"
 "http://www.w3.org/TR/2001/REC-SVG-20010904/DTD/svg10.dtd">
<svg version="1.0" xmlns="http://www.w3.org/2000/svg"
 width="2048.000000pt" height="2048.000000pt" viewBox="0 0 2048.000000 2048.000000"
 preserveAspectRatio="xMidYMid meet">
<metadata>
Created by potrace 1.14, written by Peter Selinger 2001-2017
</metadata>
<g transform="translate(0.000000,2048.000000) scale(0.100000,-0.100000)"
fill="#000000" stroke="none">
<path d="M502 20307 c-192 -469 -356 -995 -477 -1531 l-25 -109 0 -1458 c0
-803 2 -1459 4 -1459 2 0 77 23 166 50 90 28 164 49 165 48 2 -2 6 -33 9 -69
l7 -67 -33 -5 c-18 -4 -97 -12 -175 -18 l-143 -12 0 -2876 0 -2876 130 -415
c72 -228 218 -678 325 -999 107 -322 193 -587 190 -589 -8 -8 -344 222 -470
322 -66 53 -132 105 -148 116 l-27 21 0 -168 0 -168 138 -91 c184 -123 301
-193 457 -275 193 -101 405 -189 405 -169 0 6 -16 49 -36 97 -123 297 -439
1265 -572 1753 l-9 36 71 4 c39 3 213 5 386 5 246 -1 341 -5 433 -18 324 -48
614 -141 853 -274 144 -79 329 -221 446 -340 l98 -100 77 -7 c43 -3 130 -11
193 -16 293 -26 282 -25 1210 -99 136 -11 315 -24 565 -41 88 -6 219 -15 290
-20 72 -6 168 -12 215 -15 47 -3 153 -9 235 -15 200 -13 992 -59 1230 -71
1043 -52 1845 -82 2940 -111 641 -17 3210 -17 3760 0 538 17 1134 40 1365 53
102 5 262 14 355 20 369 20 787 47 830 54 17 2 71 7 120 10 80 5 574 47 701
60 109 11 254 26 342 35 232 25 292 31 362 40 41 6 131 17 200 25 146 18 399
52 485 65 33 5 94 14 135 20 330 48 377 58 427 93 69 50 214 120 329 160 293
102 637 154 1088 164 143 3 280 11 305 18 l46 11 2 1005 3 1004 -59 -121
c-100 -204 -227 -406 -370 -591 -100 -130 -180 -213 -296 -308 -436 -357 -938
-637 -1500 -836 -123 -44 -118 -43 -110 -29 8 13 13 15 -99 -25 -171 -62 -399
-114 -604 -139 -707 -88 -1530 73 -2292 446 -217 107 -325 184 -524 378 -556
540 -865 1223 -973 2154 -25 208 -25 904 0 1146 10 96 22 202 27 235 4 33 14
98 20 145 47 335 137 752 242 1115 22 77 48 166 57 198 13 49 34 81 118 184
57 68 124 155 150 191 83 115 115 141 293 229 248 123 529 229 855 322 184 52
420 101 710 146 224 35 677 52 880 34 652 -60 1282 -333 1852 -803 141 -117
462 -439 589 -591 390 -469 730 -1034 973 -1615 l61 -145 0 788 c0 530 -3 786
-10 782 -6 -4 -69 -27 -142 -51 -187 -65 -175 -89 -154 302 30 577 47 996 63
1514 9 316 9 1526 0 1785 -26 724 -66 1292 -123 1737 -30 235 -90 622 -115
739 l-11 49 -477 0 -478 0 -122 -247 c-67 -136 -159 -312 -203 -392 -588
-1053 -1361 -1906 -2289 -2528 -261 -175 -636 -385 -899 -504 -519 -233 -1064
-395 -1432 -425 -78 -6 -88 -5 -88 10 0 9 39 99 86 199 99 212 804 1612 889
1767 95 172 332 655 354 722 53 155 7 182 -164 96 -33 -17 -175 -99 -315 -183
-1967 -1172 -4305 -2003 -6670 -2369 -91 -14 -194 -30 -230 -36 -140 -22 -466
-60 -680 -79 -373 -34 -427 -37 -644 -40 -171 -2 -208 0 -204 11 21 54 351
1046 403 1213 259 819 447 1532 575 2175 5 25 34 168 65 319 30 150 55 278 55
282 0 5 -24 9 -54 9 l-53 0 -23 -62 c-126 -345 -577 -1020 -1129 -1688 -536
-649 -1156 -1303 -1536 -1620 -946 -790 -2223 -1571 -3280 -2008 -288 -119
-557 -199 -608 -179 -18 7 -51 106 -96 285 -37 146 -88 391 -95 457 -3 28 -14
111 -25 185 -30 205 -75 664 -85 870 -22 445 -27 882 -16 1272 14 526 17 605
30 798 5 85 12 196 15 245 19 308 70 905 101 1170 8 72 17 153 20 180 3 28 7
60 10 73 4 21 1 22 -60 22 l-64 0 -70 -173z m14316 -1656 c11 -6 5 -26 -28
-91 l-42 -83 -44 44 c-24 24 -44 46 -44 50 0 9 121 88 135 88 6 1 16 -3 23 -8z
m-8180 -363 c-3 -7 -13 -35 -22 -63 -14 -41 -25 -55 -64 -79 -68 -41 -437
-256 -506 -295 l-58 -33 96 108 c83 93 107 114 188 158 125 69 275 159 318
190 39 28 54 32 48 14z m-6366 -140 c-8 -8 -9 -4 -5 13 4 13 8 18 11 10 2 -7
-1 -18 -6 -23z m16843 -956 c273 -163 684 -342 1108 -483 456 -151 1164 -325
1615 -395 l112 -18 0 -36 0 -36 -132 12 c-864 83 -1730 298 -2468 611 -153 65
-527 248 -564 275 -17 14 -11 20 85 85 101 68 105 70 129 55 14 -9 66 -40 115
-70z m-11800 -1402 c219 -18 239 -20 355 -35 405 -53 761 -151 1036 -285 181
-88 227 -129 365 -332 57 -84 137 -187 178 -228 68 -70 76 -82 108 -174 168
-471 333 -1165 369 -1544 3 -31 7 -67 10 -79 9 -46 34 -462 34 -573 0 -121
-23 -452 -40 -580 -105 -789 -420 -1458 -940 -1994 -151 -156 -401 -375 -433
-380 -7 -1 -39 -14 -72 -30 -180 -83 -501 -186 -717 -230 -337 -68 -712 -97
-1003 -77 -391 28 -652 70 -965 157 -218 61 -289 88 -493 191 -389 193 -745
418 -1076 677 -136 106 -297 247 -294 257 2 5 -27 46 -64 91 -250 310 -475
785 -568 1203 -55 246 -68 371 -69 635 -1 268 9 358 64 582 84 338 283 719
548 1053 117 147 453 484 622 625 333 277 812 598 1103 741 373 182 844 297
1330 325 62 4 114 8 116 10 9 8 381 3 496 -6z"/>
<path d="M4498 15135 c-494 -68 -946 -310 -1264 -678 -478 -555 -628 -1327
-395 -2037 219 -664 767 -1183 1435 -1360 216 -57 280 -64 546 -64 224 0 257
3 383 27 1002 196 1707 1044 1707 2052 0 1056 -796 1935 -1870 2065 -115 14
-424 11 -542 -5z m345 -535 c341 -28 620 -163 854 -414 400 -429 520 -1124
277 -1608 -157 -313 -441 -509 -814 -564 -166 -24 -399 -16 -532 19 -262 69
-467 234 -583 471 -63 127 -86 224 -92 379 -8 201 24 344 111 502 57 102 187
228 293 283 129 67 211 85 383 86 133 0 152 -2 224 -27 98 -35 152 -66 221
-129 137 -125 204 -301 192 -507 -14 -247 -151 -424 -372 -481 -334 -85 -604
110 -582 422 9 142 93 268 200 304 70 23 170 15 241 -20 156 -76 226 -277 134
-382 -45 -51 -83 -67 -158 -68 -52 -1 -73 4 -105 24 l-40 24 16 -24 c42 -67
172 -79 263 -26 185 108 181 425 -7 554 -68 48 -144 65 -256 60 -127 -6 -201
-40 -288 -130 -106 -111 -157 -243 -156 -408 0 -261 162 -467 423 -537 96 -26
337 -23 441 5 313 85 498 319 516 652 23 427 -249 847 -642 989 -124 45 -266
65 -399 57 -415 -24 -719 -222 -897 -581 -236 -477 -133 -1113 241 -1493 258
-262 720 -403 1295 -395 137 1 128 -7 -32 -31 -818 -119 -1427 107 -1748 650
-295 497 -265 1197 74 1710 247 373 623 597 1064 634 51 4 97 8 103 9 6 0 68
-4 137 -9z"/>
<path d="M16355 15145 c-173 -27 -271 -50 -416 -101 -410 -143 -763 -417
-1009 -783 -175 -260 -292 -585 -331 -914 -15 -133 -6 -494 15 -610 167 -892
821 -1551 1696 -1709 166 -30 444 -36 621 -13 957 121 1700 863 1818 1815 16
122 13 417 -4 538 -97 685 -521 1264 -1150 1573 -231 113 -412 167 -703 209
-179 26 -343 24 -537 -5z m334 -596 c608 -59 1049 -466 1183 -1093 29 -134 31
-418 4 -541 -102 -470 -391 -776 -825 -876 -126 -29 -378 -37 -493 -15 -375
71 -625 310 -724 691 -26 101 -26 342 0 445 51 198 151 357 297 469 49 38 164
91 244 112 107 29 310 32 405 6 182 -49 308 -153 390 -322 47 -99 60 -159 60
-283 0 -164 -43 -281 -142 -388 -94 -100 -222 -154 -369 -154 -195 0 -339 80
-407 228 -53 117 -37 302 36 407 98 141 286 168 418 60 128 -105 132 -306 7
-385 -64 -41 -122 -48 -173 -21 l-41 21 11 -21 c28 -52 150 -65 236 -25 100
47 159 150 157 281 -1 139 -74 255 -195 311 -58 27 -72 29 -179 29 -113 0
-116 -1 -191 -38 -312 -154 -377 -633 -119 -887 122 -121 247 -164 471 -165
164 0 248 16 365 70 339 156 473 553 330 981 -143 428 -550 702 -995 669 -294
-21 -515 -119 -701 -311 -208 -215 -311 -489 -311 -829 0 -358 123 -676 356
-922 244 -259 679 -402 1233 -407 100 0 176 -4 169 -8 -7 -4 -80 -20 -162 -35
-137 -25 -170 -27 -414 -27 -242 -1 -275 1 -380 23 -284 59 -522 182 -705 366
-195 196 -318 432 -382 734 -24 112 -27 148 -27 326 0 180 3 213 28 330 34
162 73 281 136 411 217 450 620 737 1100 783 126 12 172 12 299 0z"/>
<path d="M10060 7549 c-570 -34 -1164 -153 -1669 -335 -554 -200 -1012 -463
-1531 -879 -783 -628 -1285 -1363 -1475 -2160 -66 -277 -87 -450 -87 -730 0
-237 16 -399 62 -630 176 -875 547 -1503 1108 -1877 48 -32 84 -58 81 -58 -10
0 -294 91 -504 161 -1553 522 -2685 1099 -3580 1823 -425 344 -876 805 -1203
1229 -524 679 -944 1471 -1207 2277 -26 80 -49 147 -51 149 -2 2 -4 -273 -4
-611 l0 -616 94 -37 94 -38 57 -121 c71 -153 251 -486 368 -681 422 -707 953
-1329 1527 -1791 687 -553 1674 -1072 2900 -1526 118 -43 231 -85 250 -92 19
-8 43 -27 52 -42 38 -64 103 -391 148 -741 11 -87 23 -173 26 -190 l5 -33
1587 0 1587 1 -155 63 c-236 97 -694 297 -705 309 -7 7 -4 8 8 3 120 -42 553
-116 912 -156 99 -11 198 -22 220 -25 112 -14 556 -48 1024 -80 463 -31 571
-35 930 -35 494 0 863 15 1351 56 167 14 475 46 561 59 19 2 60 9 92 13 31 5
57 6 57 3 0 -7 -136 -61 -380 -152 l-155 -58 1565 -1 1566 0 38 158 c92 382
184 666 251 771 17 29 37 44 72 56 135 50 585 231 708 285 889 394 1700 915
2520 1619 482 415 938 890 1251 1306 l54 72 0 387 0 388 -144 -216 c-251 -375
-548 -757 -843 -1083 -143 -158 -537 -550 -698 -694 -804 -717 -1737 -1315
-2775 -1777 -256 -114 -587 -246 -866 -345 -224 -81 -655 -220 -661 -214 -2 2
50 44 114 94 323 248 602 528 830 833 207 275 387 635 478 949 81 283 111 527
102 840 -13 439 -85 728 -329 1305 -416 985 -1039 1779 -1630 2077 -73 37
-202 79 -241 79 -11 0 -122 -101 -268 -245 -258 -253 -294 -284 -309 -269 -5
5 -67 122 -138 259 -191 371 -286 518 -365 569 -27 18 -178 62 -412 120 -755
188 -1553 267 -2265 225z m861 -238 c57 -6 136 -12 174 -15 265 -20 667 -78
980 -141 213 -43 574 -134 615 -155 21 -11 61 -45 89 -76 50 -56 70 -95 208
-384 82 -170 171 -318 214 -354 l31 -26 45 32 c48 34 139 117 329 299 61 58
135 125 165 149 49 38 57 42 96 36 94 -13 353 -163 538 -313 649 -526 1195
-1572 1370 -2628 53 -313 59 -660 16 -831 -51 -203 -284 -721 -446 -989 -478
-791 -1022 -1176 -1925 -1360 -140 -29 -184 -37 -555 -100 -578 -99 -634 -108
-870 -130 -323 -30 -450 -36 -920 -42 -573 -7 -1116 13 -1595 57 -58 5 -132
12 -165 15 -287 26 -745 85 -1020 131 -419 71 -691 140 -950 241 -558 219
-980 552 -1289 1018 -111 166 -175 285 -249 460 -244 582 -321 1262 -206 1820
100 488 350 981 735 1453 115 140 416 445 582 588 481 414 1033 743 1597 951
360 133 877 246 1280 279 39 3 106 9 150 13 115 12 852 13 976 2z"/>
</g>
</svg>
